<svg width="161" height="161" viewBox="0 0 161 161" fill="none" xmlns="http://www.w3.org/2000/svg">
<rect x="21" y="21" width="120.991" height="120.991" rx="23.0963" fill="url(#paint0_linear_16_27)" stroke="white" stroke-width="10"/>
<rect x="26" y="26" width="110.991" height="110.991" rx="18.0963" fill="url(#paint1_linear_16_27)"/>
<path d="M44.0963 136.991C34.102 136.991 26 128.889 26 118.894V44.0963C26 34.102 34.102 26 44.0963 26H81.4953V136.991H44.0963Z" fill="url(#paint2_linear_16_27)"/>
<path d="M82.5604 67.3581L114.189 50.9274C117.552 49.1808 116.31 44.0964 112.521 44.0964H49.263C45.4741 44.0964 44.2322 49.1808 47.5945 50.9274L79.2235 67.3581C80.2695 67.9014 81.5145 67.9014 82.5604 67.3581Z" fill="white" fill-opacity="0.9"/>
<defs>
<linearGradient id="paint0_linear_16_27" x1="81.4953" y1="26" x2="81.4953" y2="136.991" gradientUnits="userSpaceOnUse">
<stop stop-color="#9FAEFF"/>
<stop offset="1" stop-color="#5D75FF"/>
</linearGradient>
<linearGradient id="paint1_linear_16_27" x1="81.4953" y1="26" x2="81.4953" y2="136.991" gradientUnits="userSpaceOnUse">
<stop stop-color="#9FAEFF"/>
<stop offset="1" stop-color="#5D75FF"/>
</linearGradient>
<linearGradient id="paint2_linear_16_27" x1="53.7476" y1="26" x2="53.7476" y2="136.991" gradientUnits="userSpaceOnUse">
<stop offset="0.793269" stop-color="#FF9FDA"/>
<stop offset="1" stop-color="#FF6CA7"/>
</linearGradient>
</defs>
</svg>
